<svg width="64" height="72" viewBox="0 0 64 72" fill="none" xmlns="http://www.w3.org/2000/svg">
<path d="M47.8479 23.75C47.3707 22.0909 46.7002 20.625 45.8366 19.3523C44.9729 18.0568 43.9161 16.9659 42.6661 16.0796C41.4388 15.1705 40.0297 14.4773 38.4388 14C36.8707 13.5228 35.132 13.2841 33.2229 13.2841C29.6547 13.2841 26.5184 14.1705 23.8138 15.9432C21.132 17.7159 19.0411 20.2955 17.5411 23.6818C16.0411 27.0455 15.2911 31.1591 15.2911 36.0228C15.2911 40.8864 16.0297 45.0228 17.507 48.4318C18.9843 51.8409 21.0752 54.4432 23.7797 56.2387C26.4843 58.0114 29.6775 58.8978 33.3593 58.8978C36.7002 58.8978 39.5525 58.3068 41.9161 57.125C44.3025 55.9205 46.1207 54.2273 47.3707 52.0455C48.6434 49.8637 49.2797 47.2841 49.2797 44.3068L52.2797 44.75H34.2797V33.6364H63.4957V42.4318C63.4957 48.5682 62.2002 53.8409 59.6093 58.25C57.0184 62.6364 53.4502 66.0228 48.9047 68.4091C44.3593 70.7728 39.1547 71.9546 33.2911 71.9546C26.7456 71.9546 20.9957 70.5114 16.0411 67.625C11.0866 64.7159 7.22292 60.5909 4.4502 55.25C1.7002 49.8864 0.325195 43.5228 0.325195 36.1591C0.325195 30.5 1.14338 25.4546 2.77974 21.0227C4.43883 16.5682 6.75701 12.7955 9.73429 9.70457C12.7116 6.61366 16.1775 4.26138 20.132 2.64775C24.0866 1.03411 28.3707 0.227295 32.9843 0.227295C36.9388 0.227295 40.6207 0.806841 44.0297 1.96593C47.4388 3.1023 50.4616 4.71593 53.0979 6.80684C55.757 8.89775 57.9275 11.3864 59.6093 14.2727C61.2911 17.1364 62.3707 20.2955 62.8479 23.75H47.8479Z" fill="#082022"/>
</svg>
