<svg width="48" height="67" viewBox="0 0 54 69" fill="none" xmlns="http://www.w3.org/2000/svg">
<path d="M26.9881 68.4383C21.4909 68.417 16.7608 67.064 12.7977 64.3793C8.85597 61.6947 5.81974 57.8062 3.68906 52.7138C1.57969 47.6215 0.535653 41.4958 0.55696 34.3367C0.55696 27.1989 1.61165 21.1158 3.72102 16.0874C5.8517 11.059 8.88793 7.23444 12.8297 4.61371C16.7928 1.97166 21.5122 0.650635 26.9881 0.650635C32.4639 0.650635 37.1727 1.97166 41.1145 4.61371C45.0776 7.25575 48.1244 11.091 50.2551 16.1194C52.3858 21.1265 53.4405 27.1989 53.4192 34.3367C53.4192 41.5171 52.3538 47.6535 50.2232 52.7458C48.1138 57.8381 45.0882 61.7266 41.1465 64.4113C37.2047 67.0959 32.4852 68.4383 26.9881 68.4383ZM26.9881 56.9646C30.7381 56.9646 33.7317 55.0789 35.9689 51.3076C38.2061 47.5363 39.3141 41.8793 39.2928 34.3367C39.2928 29.3722 38.7814 25.2387 37.7587 21.9361C36.7572 18.6336 35.3297 16.1513 33.476 14.4894C31.6436 12.8275 29.481 11.9965 26.9881 11.9965C23.2594 11.9965 20.2764 13.8609 18.0392 17.5896C15.802 21.3183 14.6727 26.9006 14.6514 34.3367C14.6514 39.3651 15.1521 43.5626 16.1536 46.929C17.1763 50.2742 18.6145 52.7884 20.4682 54.4717C22.3219 56.1336 24.4952 56.9646 26.9881 56.9646Z" fill="#082022"/>
</svg>
