<svg width="48" height="67" viewBox="0 0 48 67" fill="none" xmlns="http://www.w3.org/2000/svg">
<path d="M0.960738 67.0001V57.0285L24.2597 35.4553C26.2413 33.5377 27.9032 31.8119 29.2455 30.2778C30.6092 28.7437 31.6426 27.2415 32.3457 25.7714C33.0488 24.2799 33.4004 22.6712 33.4004 20.9454C33.4004 19.0278 32.9636 17.3765 32.09 15.9915C31.2164 14.5853 30.0232 13.5093 28.5105 12.7636C26.9977 11.9965 25.2825 11.613 23.3649 11.613C21.362 11.613 19.6149 12.0178 18.1234 12.8275C16.6319 13.6371 15.4813 14.7984 14.6717 16.3111C13.862 17.8239 13.4572 19.6244 13.4572 21.7124H0.321533C0.321533 17.4298 1.29099 13.7117 3.22991 10.5583C5.16883 7.4049 7.88545 4.96527 11.3798 3.23941C14.8741 1.51356 18.9011 0.650635 23.4607 0.650635C28.1482 0.650635 32.2285 1.4816 35.7015 3.14353C39.1958 4.78416 41.9124 7.06399 43.8514 9.98302C45.7903 12.9021 46.7597 16.2472 46.7597 20.0185C46.7597 22.4901 46.2697 24.9298 45.2896 27.3374C44.3308 29.7451 42.6156 32.4191 40.144 35.3594C37.6724 38.2785 34.1887 41.7835 29.693 45.8744L20.1369 55.2387V55.6861H47.6227V67.0001H0.960738Z" fill="#082022"/>
</svg>
