<svg width="48" height="67" viewBox="0 0 51 68" fill="none" xmlns="http://www.w3.org/2000/svg">
<path d="M24.8363 67.895C20.0635 67.895 15.8128 67.0746 12.0841 65.434C8.37675 63.7721 5.44707 61.4923 3.29508 58.5945C1.1644 55.6755 0.0670942 52.309 0.00317383 48.4951H13.9378C14.0231 50.0931 14.5451 51.4994 15.5039 52.7138C16.484 53.907 17.7837 54.8339 19.403 55.4944C21.0223 56.1549 22.8441 56.4852 24.8682 56.4852C26.9776 56.4852 28.842 56.1123 30.4613 55.3665C32.0806 54.6208 33.3483 53.5874 34.2645 52.2664C35.1807 50.9454 35.6388 49.4219 35.6388 47.6961C35.6388 45.9489 35.1488 44.4042 34.1687 43.0619C33.2099 41.6982 31.8249 40.6329 30.0138 39.8658C28.2241 39.0988 26.0934 38.7153 23.6218 38.7153H17.5174V28.5519H23.6218C25.7098 28.5519 27.5529 28.1897 29.1509 27.4653C30.7702 26.7408 32.0273 25.7394 32.9222 24.461C33.8171 23.1613 34.2645 21.6485 34.2645 19.9227C34.2645 18.282 33.8704 16.8438 33.082 15.608C32.315 14.3509 31.2283 13.3708 29.8221 12.6677C28.4371 11.9646 26.8178 11.613 24.9641 11.613C23.0891 11.613 21.3739 11.9539 19.8185 12.6357C18.2631 13.2962 17.0167 14.2444 16.0792 15.4802C15.1417 16.716 14.641 18.1648 14.577 19.8268H1.31354C1.37746 16.0555 2.45346 12.7316 4.54153 9.85518C6.62959 6.97876 9.4421 4.73089 12.979 3.11157C16.5373 1.47095 20.5536 0.650635 25.028 0.650635C29.5451 0.650635 33.4975 1.47095 36.8853 3.11157C40.2731 4.7522 42.9045 6.96811 44.7795 9.7593C46.6758 12.5292 47.6133 15.64 47.592 19.0917C47.6133 22.7565 46.4733 25.814 44.1722 28.2643C41.8924 30.7146 38.9201 32.27 35.2553 32.9305V33.4418C40.0706 34.0597 43.7354 35.7323 46.2496 38.4596C48.7851 41.1655 50.0422 44.5533 50.0209 48.6229C50.0422 52.3516 48.9662 55.6648 46.7929 58.5626C44.641 61.4603 41.6687 63.7401 37.876 65.4021C34.0834 67.064 29.7368 67.895 24.8363 67.895Z" fill="#082022"/>
</svg>
