<svg width="48" height="67" viewBox="0 0 49 67" fill="none" xmlns="http://www.w3.org/2000/svg">
<path d="M24.2077 66.8948C19.6906 66.8948 15.6636 66.0639 12.1267 64.4019C8.61108 62.74 5.81989 60.4495 3.75313 57.5305C1.68637 54.6115 0.610374 51.2663 0.525146 47.495H13.9484C14.0976 50.0305 15.1629 52.0866 17.1445 53.6633C19.126 55.24 21.4804 56.0284 24.2077 56.0284C26.381 56.0284 28.2986 55.549 29.9605 54.5902C31.6438 53.61 32.9541 52.2571 33.8916 50.5312C34.8504 48.784 35.3298 46.7812 35.3298 44.5227C35.3298 42.2215 34.8398 40.1974 33.8597 38.4502C32.9009 36.7031 31.5692 35.3394 29.8646 34.3593C28.1601 33.3792 26.2105 32.8785 24.0159 32.8572C22.0983 32.8572 20.234 33.2514 18.4229 34.0397C16.6331 34.8281 15.2375 35.9041 14.2361 37.2677L1.9314 35.0625L5.03154 0.54541H45.0457V11.8593H16.4413L14.7474 28.2549H15.131C16.2815 26.6356 18.018 25.2933 20.3405 24.2279C22.6629 23.1626 25.2624 22.6299 28.1388 22.6299C32.0805 22.6299 35.5962 23.5568 38.6857 25.4105C41.7751 27.2642 44.2148 29.8103 46.0046 33.049C47.7943 36.2663 48.6786 39.9737 48.6572 44.1711C48.6786 48.5816 47.6558 52.5021 45.5891 55.9325C43.5436 59.3416 40.6778 62.0262 36.9918 63.9865C33.327 65.9254 29.0656 66.8948 24.2077 66.8948Z" fill="#082022"/>
</svg>
