<svg width="48" height="67" viewBox="0 0 52 68" fill="none" xmlns="http://www.w3.org/2000/svg">
<path d="M26.7192 67.895C23.3527 67.8737 20.1034 67.309 16.9713 66.2011C13.8605 65.0931 11.0693 63.2927 8.5977 60.7998C6.12611 58.3069 4.16588 55.0043 2.71702 50.8921C1.28946 46.7799 0.575684 41.7302 0.575684 35.743C0.59699 30.2458 1.22554 25.3346 2.46134 21.0093C3.71844 16.6627 5.50821 12.9766 7.83066 9.95106C10.1744 6.92549 12.9763 4.62436 16.2362 3.04765C19.4961 1.44964 23.1503 0.650635 27.1986 0.650635C31.5665 0.650635 35.423 1.50291 38.7682 3.20746C42.1133 4.89069 44.798 7.18118 46.8221 10.0789C48.8676 12.9766 50.1034 16.2259 50.5295 19.8268H36.8825C36.3498 17.5469 35.2312 15.7572 33.5267 14.4575C31.8221 13.1577 29.7128 12.5079 27.1986 12.5079C22.9372 12.5079 19.6986 14.3616 17.4826 18.069C15.288 21.7763 14.1694 26.8154 14.1268 33.1861H14.5743C15.5544 31.2472 16.8754 29.5959 18.5373 28.2323C20.2206 26.8474 22.1275 25.7927 24.2582 25.0683C26.4102 24.3225 28.6794 23.9496 31.0657 23.9496C34.9436 23.9496 38.3953 24.8658 41.4209 26.6982C44.4464 28.5093 46.8328 31.0022 48.5799 34.1769C50.3271 37.3516 51.2007 40.9844 51.2007 45.0754C51.2007 49.5072 50.1673 53.4489 48.1005 56.9006C46.0551 60.3523 43.1893 63.0583 39.5032 65.0185C35.8385 66.9575 31.5771 67.9163 26.7192 67.895ZM26.6552 57.0285C28.7859 57.0285 30.6929 56.5171 32.3761 55.4944C34.0593 54.4717 35.3804 53.0867 36.3392 51.3396C37.298 49.5924 37.7774 47.6322 37.7774 45.4589C37.7774 43.2856 37.298 41.336 36.3392 39.6102C35.4017 37.8843 34.102 36.51 32.44 35.4873C30.7781 34.4646 28.8818 33.9532 26.7511 33.9532C25.1531 33.9532 23.6723 34.2515 22.3086 34.8481C20.9663 35.4447 19.7838 36.2756 18.7611 37.341C17.7596 38.4063 16.9713 39.6421 16.396 41.0484C15.8207 42.4333 15.5331 43.9141 15.5331 45.4908C15.5331 47.6002 16.0125 49.5285 16.9713 51.2756C17.9514 53.0228 19.2724 54.4184 20.9343 55.4624C22.6176 56.5065 24.5245 57.0285 26.6552 57.0285Z" fill="#082022"/>
</svg>
