<svg width="48" height="67" viewBox="0 0 52 68" fill="none" xmlns="http://www.w3.org/2000/svg">
<path d="M25.9721 67.895C21.0502 67.895 16.6717 67.096 12.8365 65.4979C9.02255 63.8786 6.02894 61.6734 3.85565 58.8822C1.68235 56.091 0.595703 52.9269 0.595703 49.39C0.595703 46.6627 1.2136 44.1592 2.4494 41.8793C3.7065 39.5782 5.41104 37.6712 7.56303 36.1585C9.71502 34.6244 12.1227 33.6442 14.786 33.2181V32.7707C11.2917 32.0675 8.45792 30.3736 6.28462 27.689C4.11133 24.983 3.02468 21.8403 3.02468 18.2607C3.02468 14.8729 4.01545 11.858 5.99698 9.21597C7.97852 6.55262 10.6951 4.46456 14.1468 2.95177C17.6199 1.41768 21.5616 0.650635 25.9721 0.650635C30.3826 0.650635 34.3137 1.41768 37.7654 2.95177C41.2385 4.48586 43.9657 6.58458 45.9473 9.24794C47.9288 11.89 48.9302 14.8942 48.9515 18.2607C48.9302 21.8616 47.8223 25.0043 45.6277 27.689C43.4331 30.3736 40.6206 32.0675 37.1902 32.7707V33.2181C39.8109 33.6442 42.1866 34.6244 44.3173 36.1585C46.4693 37.6712 48.1738 39.5782 49.4309 41.8793C50.7093 44.1592 51.3592 46.6627 51.3805 49.39C51.3592 52.9269 50.2619 56.091 48.0886 58.8822C45.9153 61.6734 42.911 63.8786 39.0758 65.4979C35.2619 67.096 30.894 67.895 25.9721 67.895ZM25.9721 57.7316C28.1667 57.7316 30.0843 57.3374 31.725 56.5491C33.3656 55.7394 34.644 54.6315 35.5602 53.2252C36.4977 51.7977 36.9664 50.157 36.9664 48.3033C36.9664 46.407 36.487 44.7344 35.5282 43.2856C34.5694 41.8154 33.2697 40.6648 31.6291 39.8339C29.9885 38.9816 28.1028 38.5555 25.9721 38.5555C23.8627 38.5555 21.9771 38.9816 20.3152 39.8339C18.6532 40.6648 17.3429 41.8154 16.3841 43.2856C15.4466 44.7344 14.9778 46.407 14.9778 48.3033C14.9778 50.157 15.4359 51.7977 16.3521 53.2252C17.2683 54.6315 18.5574 55.7394 20.2193 56.5491C21.8812 57.3374 23.7988 57.7316 25.9721 57.7316ZM25.9721 28.488C27.8045 28.488 29.4345 28.1151 30.862 27.3694C32.2896 26.6236 33.4082 25.5903 34.2179 24.2692C35.0275 22.9482 35.4324 21.4248 35.4324 19.6989C35.4324 17.9944 35.0275 16.5029 34.2179 15.2245C33.4082 13.9248 32.3002 12.9127 30.894 12.1883C29.4877 11.4425 27.8471 11.0697 25.9721 11.0697C24.1184 11.0697 22.4778 11.4425 21.0502 12.1883C19.6227 12.9127 18.5041 13.9248 17.6944 15.2245C16.9061 16.5029 16.5119 17.9944 16.5119 19.6989C16.5119 21.4248 16.9167 22.9482 17.7264 24.2692C18.536 25.5903 19.6547 26.6236 21.0822 27.3694C22.5098 28.1151 24.1397 28.488 25.9721 28.488Z" fill="#082022"/>
</svg>
