<svg width="48" height="67" viewBox="0 0 52 68" fill="none" xmlns="http://www.w3.org/2000/svg">
<path d="M25.281 0.65049C28.6474 0.65049 31.8861 1.21512 34.9969 2.34438C38.129 3.47364 40.9202 5.27407 43.3704 7.74566C45.842 10.2173 47.7916 13.4985 49.2192 17.5894C50.668 21.659 51.4031 26.6555 51.4244 32.5788C51.4244 38.1398 50.7959 43.1043 49.5388 47.4722C48.303 51.8188 46.5239 55.5155 44.2014 58.5624C41.879 61.6093 39.0771 63.9317 35.7959 65.5298C32.5146 67.1065 28.8499 67.8948 24.8016 67.8948C20.4337 67.8948 16.5771 67.0532 13.232 65.3699C9.88678 63.6654 7.19147 61.3536 5.14601 58.4346C3.12187 55.4942 1.89673 52.1917 1.47059 48.5269H15.1176C15.6503 50.9133 16.7689 52.767 18.4734 54.088C20.178 55.3877 22.2874 56.0376 24.8016 56.0376C29.0629 56.0376 32.3016 54.1839 34.5175 50.4765C36.7334 46.7478 37.852 41.6448 37.8733 35.1675H37.4258C36.4457 37.0852 35.1247 38.7364 33.4628 40.1214C31.8008 41.485 29.8939 42.5397 27.7419 43.2854C25.6112 44.0312 23.342 44.404 20.9344 44.404C17.0778 44.404 13.6368 43.4985 10.6112 41.6874C7.58565 39.8763 5.19928 37.3834 3.45212 34.2087C1.70496 31.034 0.831384 27.4119 0.831384 23.3423C0.810077 18.9531 1.82215 15.0432 3.86761 11.6129C5.91306 8.18245 8.76817 5.49779 12.4329 3.55887C16.119 1.59864 20.4017 0.629183 25.281 0.65049ZM25.3768 11.517C23.2249 11.517 21.3072 12.0283 19.624 13.0511C17.9621 14.0738 16.641 15.4481 15.6609 17.1739C14.7021 18.8998 14.2334 20.828 14.2547 22.9587C14.2547 25.1107 14.7234 27.0496 15.6609 28.7755C16.6197 30.48 17.9195 31.8437 19.5601 32.8664C21.222 33.8678 23.1183 34.3685 25.249 34.3685C26.847 34.3685 28.3278 34.0702 29.6915 33.4736C31.0551 32.8771 32.2376 32.0567 33.2391 31.0127C34.2618 29.9474 35.0608 28.7222 35.6361 27.3373C36.2114 25.9523 36.499 24.4822 36.499 22.9268C36.4777 20.86 35.9876 18.9637 35.0288 17.2379C34.07 15.512 32.749 14.1271 31.0658 13.083C29.3825 12.039 27.4862 11.517 25.3768 11.517Z" fill="#082022"/>
</svg>
