<svg width="55" height="70" viewBox="0 0 55 70" fill="none" xmlns="http://www.w3.org/2000/svg">
<path d="M0.33374 70.0001V0.181885H28.2883C33.4247 0.181885 37.7087 0.943249 41.1406 2.46598C44.5724 3.9887 47.1519 6.10234 48.8792 8.80688C50.6065 11.4887 51.4701 14.5796 51.4701 18.0796C51.4701 20.8069 50.9247 23.2046 49.8337 25.2728C48.7428 27.3183 47.2428 29.0001 45.3337 30.3182C43.4474 31.6137 41.2883 32.5342 38.8565 33.0796V33.7614C41.5156 33.8751 44.0042 34.6251 46.3224 36.0114C48.6633 37.3978 50.561 39.341 52.0156 41.841C53.4701 44.3182 54.1974 47.2728 54.1974 50.7046C54.1974 54.4092 53.2769 57.716 51.436 60.6251C49.6178 63.5114 46.9247 65.7955 43.3565 67.4773C39.7883 69.1592 35.3906 70.0001 30.1633 70.0001H0.33374ZM15.0951 57.9319H27.1292C31.2428 57.9319 34.2428 57.1478 36.1292 55.5796C38.0156 53.9887 38.9587 51.8751 38.9587 49.2387C38.9587 47.3069 38.4928 45.6023 37.561 44.1251C36.6292 42.6478 35.2997 41.4887 33.5724 40.6478C31.8678 39.8069 29.8337 39.3864 27.4701 39.3864H15.0951V57.9319ZM15.0951 29.3978H26.0383C28.061 29.3978 29.8565 29.0455 31.4247 28.341C33.0156 27.6137 34.2656 26.591 35.1747 25.2728C36.1065 23.9546 36.5724 22.3751 36.5724 20.5342C36.5724 18.0114 35.6747 15.9773 33.8792 14.4319C32.1065 12.8864 29.5837 12.1137 26.311 12.1137H15.0951V29.3978Z" fill="#EFE9F4"/>
</svg>
