<svg width="66" height="72" viewBox="0 0 66 72" fill="none" xmlns="http://www.w3.org/2000/svg">
<path d="M65.6803 36.0909C65.6803 43.7046 64.2371 50.1818 61.3508 55.5228C58.4871 60.8637 54.578 64.9432 49.6235 67.7614C44.6917 70.5568 39.1462 71.9546 32.9871 71.9546C26.7826 71.9546 21.2144 70.5455 16.2826 67.7273C11.3508 64.9091 7.45304 60.8296 4.5894 55.4887C1.72576 50.1478 0.293945 43.6818 0.293945 36.0909C0.293945 28.4773 1.72576 22 4.5894 16.6591C7.45304 11.3182 11.3508 7.25002 16.2826 4.45457C21.2144 1.63639 26.7826 0.227295 32.9871 0.227295C39.1462 0.227295 44.6917 1.63639 49.6235 4.45457C54.578 7.25002 58.4871 11.3182 61.3508 16.6591C64.2371 22 65.6803 28.4773 65.6803 36.0909ZM50.7144 36.0909C50.7144 31.1591 49.9758 27 48.4985 23.6137C47.0439 20.2273 44.9871 17.6591 42.328 15.9091C39.6689 14.1591 36.5553 13.2841 32.9871 13.2841C29.4189 13.2841 26.3053 14.1591 23.6462 15.9091C20.9871 17.6591 18.9189 20.2273 17.4417 23.6137C15.9871 27 15.2599 31.1591 15.2599 36.0909C15.2599 41.0228 15.9871 45.1818 17.4417 48.5682C18.9189 51.9546 20.9871 54.5228 23.6462 56.2728C26.3053 58.0228 29.4189 58.8978 32.9871 58.8978C36.5553 58.8978 39.6689 58.0228 42.328 56.2728C44.9871 54.5228 47.0439 51.9546 48.4985 48.5682C49.9758 45.1818 50.7144 41.0228 50.7144 36.0909Z" fill="#EFE9F4"/>
</svg>
